<?xml version="1.0" encoding="UTF-8" standalone="no"?>
<!-- Created with Inkscape (http://www.inkscape.org/) -->

<svg
   width="64.248878mm"
   height="29.279678mm"
   viewBox="0 0 64.248879 29.279679"
   version="1.1"
   id="svg5"
   inkscape:version="1.1.2 (b8e25be833, 2022-02-05)"
   sodipodi:docname="logo.svg"
   inkscape:export-filename="C:\Users\xiazian\Desktop\logo.png"
   inkscape:export-xdpi="96"
   inkscape:export-ydpi="96"
   xmlns:inkscape="http://www.inkscape.org/namespaces/inkscape"
   xmlns:sodipodi="http://sodipodi.sourceforge.net/DTD/sodipodi-0.dtd"
   xmlns="http://www.w3.org/2000/svg"
   xmlns:svg="http://www.w3.org/2000/svg">
  <sodipodi:namedview
     id="namedview7"
     pagecolor="#ffffff"
     bordercolor="#666666"
     borderopacity="1.0"
     inkscape:pageshadow="2"
     inkscape:pageopacity="0.0"
     inkscape:pagecheckerboard="0"
     inkscape:document-units="mm"
     showgrid="false"
     inkscape:zoom="1.4805976"
     inkscape:cx="128.32656"
     inkscape:cy="190.46363"
     inkscape:window-width="1920"
     inkscape:window-height="1009"
     inkscape:window-x="-8"
     inkscape:window-y="-8"
     inkscape:window-maximized="1"
     inkscape:current-layer="layer1" />
  <defs
     id="defs2" />
  <g
     inkscape:label="图层 1"
     inkscape:groupmode="layer"
     id="layer1"
     transform="translate(-29.208124,-24.023048)">
    <path
       d="M 43.859765,24.773048 A 13.879738,13.878886 0 0 1 57.739503,38.651923 13.879738,13.878886 0 1 1 43.859765,24.773048 Z"
       style="fill:#1668de;fill-opacity:1;fill-rule:evenodd;stroke:#0d39bd;stroke-width:1.5;stroke-linecap:butt;stroke-linejoin:miter;stroke-miterlimit:4;stroke-dasharray:none"
       id="path870" />
    <path
       d="m 36.103617,34.876645 h -1.335163 v -3.337887 h 9.346131 v 6.230733 h -3.004114 c 0,-1.152017 0.127557,-3.202886 -0.111255,-4.228003 -1.052819,0 -2.191366,0.0419 -3.23328,6.73e-4 -0.950265,-0.03763 -0.775426,-0.346373 -1.395787,0.710915 -0.157613,0.268656 -0.195059,0.316783 -0.266532,0.623574 z m -3.449158,3.460437 v -0.206318 c 0.04699,-0.184876 0.211016,-0.361273 0.445043,-0.361273 h 7.232137 v -3.449142 h -2.89287 c -0.387413,0 -0.8616,1.212741 -0.890109,1.335124 h -0.778842 c 0,0.847631 0.16804,1.668944 -0.445044,1.668944 -0.494339,0 -0.333788,-0.519352 -0.333788,-1.668944 -0.66209,0 -1.001375,0.192264 -1.001375,-0.333753 v -4.228004 c 0,-0.256349 0.07742,-0.333786 0.333799,-0.333786 h 10.236219 c 0.256383,0 0.333788,0.07744 0.333788,0.333786 v 7.120817 c 0,0.256382 -0.0774,0.333797 -0.333788,0.333797 H 32.988247 c -0.192855,0 -0.298279,-0.09126 -0.333788,-0.211248 z"
       style="fill:#b8ba25;fill-rule:evenodd;stroke-width:0.264583"
       id="path872" />
    <path
       d="m 51.067861,47.421482 z m -2.009405,0 z m 2.009405,0 c 0.227396,-0.339696 0.668455,-0.693122 0.781424,-1.116331 0.533164,0 0.462837,0.0758 0.893069,0.111633 -0.155277,0.5815 -1.380008,0.98025 -1.674493,1.004698 z m -2.009405,0 c -0.40791,-0.03393 -0.634304,-0.193233 -0.969316,-0.370285 -0.58384,-0.308549 -0.613206,-0.289799 -0.705188,-0.634413 0.430233,-0.03583 0.359905,-0.111633 0.893069,-0.111633 0.112969,0.423209 0.55404,0.776635 0.781435,1.116331 z m 1.22797,-0.111633 v -1.116331 h 1.004691 c -0.124241,0.465405 -0.644675,0.875205 -1.004691,1.116331 z m -1.451237,-1.116331 h 1.004702 v 1.116331 C 49.602225,47.150778 49.522183,47.048971 49.30695,46.83809 49.21832,46.75124 49.095178,46.645414 49.027755,46.559119 48.760166,46.216964 48.966685,46.443691 48.835189,46.193518 Z m 4.465333,-0.111633 c -0.286896,-0.137639 -0.680295,-0.223266 -1.116336,-0.223266 0.436375,-0.909467 0.376986,-1.34327 0.558168,-2.121018 h 1.339603 c 0,1.039193 -0.306102,1.445867 -0.781435,2.344284 z M 46.044349,44.0725 v -0.334899 h 1.339603 c 0.181182,0.777748 0.121794,1.211551 0.558168,2.121018 -0.436041,0 -0.82944,0.08563 -1.116336,0.223266 C 46.579972,45.61727 46.044349,44.709027 46.044349,44.0725 Z m 5.581669,1.674497 c -0.440281,-0.0098 -0.491179,-0.111633 -1.339592,-0.111633 0,-2.295067 -0.397305,-1.897763 1.89776,-1.897763 0,0.770259 -0.290579,1.503586 -0.558168,2.009396 z M 47.94212,43.737601 c 2.295066,0 1.897771,-0.397304 1.897771,1.897763 -0.848413,0 -0.899322,0.101807 -1.339603,0.111633 -0.267589,-0.50581 -0.558168,-1.239137 -0.558168,-2.009396 z m 2.344306,-0.781432 v -1.562863 c 0.848413,0 0.899311,-0.101808 1.339592,-0.111633 0.267589,0.505809 0.558168,1.239125 0.558168,2.009395 -1.270277,0 -1.89776,0.180058 -1.89776,-0.334899 z m -0.781435,0.334899 H 47.94212 c 0,-0.838706 0.268479,-1.461835 0.558168,-2.009395 0.440281,0.0098 0.49119,0.111633 1.339603,0.111633 0,1.270271 0.180058,1.897762 -0.3349,1.897762 z m 2.679195,-2.121029 c 0.436041,0 0.82944,-0.08562 1.116336,-0.223266 0.475333,0.898429 0.781435,1.305102 0.781435,2.344295 h -1.339603 c -0.181182,-0.777748 -0.121793,-1.21155 -0.558168,-2.121029 z m -4.800234,2.121029 h -1.339603 c 0,-1.039193 0.306102,-1.445866 0.781435,-2.344295 0.286896,0.13765 0.680295,0.223266 1.116336,0.223266 -0.436374,0.909479 -0.376986,1.343281 -0.558168,2.121029 z m 2.902474,-3.572259 c 0.360016,0.241126 0.88045,0.650937 1.004691,1.116331 h -1.004691 z m -0.446535,0 v 1.116331 h -1.004702 c 0.124241,-0.465394 0.644686,-0.875205 1.004702,-1.116331 z m 1.22797,-0.111633 c 0.294485,0.02445 1.519216,0.423209 1.674493,1.004698 -0.430232,0.03583 -0.359905,0.111633 -0.893069,0.111633 -0.112969,-0.423198 -0.554028,-0.776625 -0.781424,-1.116331 z m -2.009405,0 c -0.227395,0.339706 -0.668466,0.693133 -0.781435,1.116331 -0.533164,0 -0.462836,-0.0758 -0.893069,-0.111633 0.141323,-0.529367 1.159979,-0.961823 1.674504,-1.004698 z m 2.009405,0 z m -2.009405,0 z m -3.572275,3.683892 c 0,1.414498 0.446646,2.633415 1.306676,3.493554 0.302297,0.302295 0.915169,0.694691 1.331335,0.901321 1.613213,0.800627 3.807483,0.419292 5.152661,-0.846284 1.802106,-1.695706 1.791279,-4.860836 0.05661,-6.595612 -0.302307,-0.302306 -0.91518,-0.694691 -1.331346,-0.901332 -2.772969,-1.376208 -6.515933,0.690563 -6.515933,3.948353 z"
       style="fill:#9999ff;fill-rule:evenodd;stroke-width:0.264583"
       id="path874" />
    <g
       id="Layer1000"
       transform="matrix(0.11127752,0,0,0.11127702,9.7334385,13.40905)"
       style="stroke-width:2.37769">
      <path
         d="m 263.372,276.4905 a 5.6696,5.6693 0 0 0 -5.6697,5.6693 5.6696,5.6693 0 1 0 5.6697,-5.6693 z"
         style="fill:#00ff00;fill-rule:evenodd;stroke-width:2.37769"
         id="path876" />
      <path
         d="m 226.4943,251.3344 a 2.1261,2.126 0 0 0 -2.1261,2.126 2.1261,2.126 0 1 0 2.1261,-2.126 z"
         style="fill:#00ff00;fill-rule:evenodd;stroke-width:2.37769"
         id="path878" />
      <path
         d="m 226.4943,280.0338 a 2.1261,2.126 0 0 0 -2.1261,2.126 2.1261,2.126 0 1 0 2.1261,-2.126 z"
         style="fill:#00ff00;fill-rule:evenodd;stroke-width:2.37769"
         id="path880" />
      <path
         d="m 226.4943,266.7532 a 2.1261,2.126 0 0 0 -2.1261,2.126 2.1261,2.126 0 1 0 2.1261,-2.126 z"
         style="fill:#00ff00;fill-rule:evenodd;stroke-width:2.37769"
         id="path882" />
      <path
         d="m 243.6995,280.0338 a 2.1261,2.126 0 0 0 -2.1261,2.126 2.1261,2.126 0 1 0 2.1261,-2.126 z"
         style="fill:#00ff00;fill-rule:evenodd;stroke-width:2.37769"
         id="path884" />
      <path
         d="m 278.1101,280.0338 a 2.1261,2.126 0 0 0 -2.1261,2.126 2.1261,2.126 0 1 0 2.1261,-2.126 z"
         style="fill:#00ff00;fill-rule:evenodd;stroke-width:2.37769"
         id="path886" />
      <path
         d="m 295.3152,280.0338 a 2.1261,2.126 0 0 0 -2.1261,2.126 2.1261,2.126 0 1 0 2.1261,-2.126 z"
         style="fill:#00ff00;fill-rule:evenodd;stroke-width:2.37769"
         id="path888" />
      <path
         d="m 312.5204,280.0338 a 2.1261,2.126 0 0 0 -2.1261,2.126 2.1261,2.126 0 1 0 2.1261,-2.126 z"
         style="fill:#00ff00;fill-rule:evenodd;stroke-width:2.37769"
         id="path890" />
      <path
         d="m 226.4943,235.9159 a 2.1261,2.126 0 0 0 -2.1261,2.126 2.1261,2.126 0 1 0 2.1261,-2.126 z"
         style="fill:#00ff00;fill-rule:evenodd;stroke-width:2.37769"
         id="path892" />
    </g>
    <g
       id="Layer1001"
       transform="matrix(0.11127752,0,0,0.11127702,9.7334385,13.40905)"
       style="stroke-width:2.37769">
      <path
         d="m 361.7751,180.9958 a 5.6696,5.6693 0 0 0 5.6696,-5.6693 5.6696,5.6693 0 1 0 -5.6696,5.6693 z"
         style="fill:#00ff00;fill-rule:evenodd;stroke-width:2.37769"
         id="path895" />
      <path
         d="m 376.775,223.1215 a 2.1261,2.126 0 0 0 2.1261,-2.126 2.1261,2.126 0 1 0 -2.1261,2.126 z"
         style="fill:#00ff00;fill-rule:evenodd;stroke-width:2.37769"
         id="path897" />
      <path
         d="m 376.775,194.4221 a 2.1261,2.126 0 0 0 2.1261,-2.126 2.1261,2.126 0 1 0 -2.1261,2.126 z"
         style="fill:#00ff00;fill-rule:evenodd;stroke-width:2.37769"
         id="path899" />
      <path
         d="m 376.775,207.7027 a 2.1261,2.126 0 0 0 2.1261,-2.126 2.1261,2.126 0 1 0 -2.1261,2.126 z"
         style="fill:#00ff00;fill-rule:evenodd;stroke-width:2.37769"
         id="path901" />
      <path
         d="m 376.275,178.0461 a 2.1261,2.126 0 0 0 2.1261,-2.126 2.1261,2.126 0 1 0 -2.1261,2.126 z"
         style="fill:#00ff00;fill-rule:evenodd;stroke-width:2.37769"
         id="path903" />
      <path
         d="m 345.3314,177.7958 a 2.1261,2.126 0 0 0 2.1261,-2.126 2.1261,2.126 0 1 0 -2.1261,2.126 z"
         style="fill:#00ff00;fill-rule:evenodd;stroke-width:2.37769"
         id="path905" />
      <path
         d="m 328.1262,177.7958 a 2.1261,2.126 0 0 0 2.1261,-2.126 2.1261,2.126 0 1 0 -2.1261,2.126 z"
         style="fill:#00ff00;fill-rule:evenodd;stroke-width:2.37769"
         id="path907" />
    </g>
    <text
       xml:space="preserve"
       style="font-size:4.23333px;line-height:1.25;font-family:FontAwesome;-inkscape-font-specification:FontAwesome;stroke-width:0.264583"
       x="59.611038"
       y="45.289726"
       id="text4536"><tspan
         sodipodi:role="line"
         id="tspan4534"
         style="font-size:4.23333px;stroke-width:0.264583"
         x="59.611038"
         y="45.289726">工缝电控开发平台</tspan></text>
    <text
       xml:space="preserve"
       style="font-size:7.05556px;line-height:1.25;font-family:FontAwesome;-inkscape-font-specification:FontAwesome;stroke-width:0.264583"
       x="59.253639"
       y="38.320408"
       id="text14960"><tspan
         sodipodi:role="line"
         id="tspan14958"
         style="font-style:normal;font-variant:normal;font-weight:normal;font-stretch:normal;font-size:7.05556px;font-family:'Microsoft YaHei UI';-inkscape-font-specification:'Microsoft YaHei UI';stroke-width:0.264583"
         x="59.253639"
         y="38.320408">SewScript</tspan></text>
  </g>
</svg>
